<mxfile host="app.diagrams.net" modified="2023-03-25T07:42:36.844Z" agent="5.0 (Windows NT 10.0; Win64; x64) AppleWebKit/537.36 (KHTML, like Gecko) Chrome/110.0.0.0 Safari/537.36" etag="6wmBu7C3oXc1d0v9E6rj" version="20.5.3" type="github">
  <diagram id="wnUF4AdLyiSDT9KhIQab" name="Page-1">
    <mxGraphModel dx="813" dy="435" grid="1" gridSize="10" guides="1" tooltips="1" connect="1" arrows="1" fold="1" page="1" pageScale="1" pageWidth="827" pageHeight="1169" math="0" shadow="0">
      <root>
        <mxCell id="0" />
        <mxCell id="1" parent="0" />
        <mxCell id="WPJqmkYzr5y2CwLYosxu-16" style="edgeStyle=orthogonalEdgeStyle;rounded=0;orthogonalLoop=1;jettySize=auto;html=1;exitX=0.5;exitY=1;exitDx=0;exitDy=0;entryX=0.5;entryY=0;entryDx=0;entryDy=0;fontSize=14;" edge="1" parent="1" source="WPJqmkYzr5y2CwLYosxu-1" target="WPJqmkYzr5y2CwLYosxu-8">
          <mxGeometry relative="1" as="geometry" />
        </mxCell>
        <mxCell id="WPJqmkYzr5y2CwLYosxu-1" value="&lt;font style=&quot;font-size: 14px;&quot;&gt;AI&lt;/font&gt;" style="rounded=0;whiteSpace=wrap;html=1;" vertex="1" parent="1">
          <mxGeometry x="135" y="30" width="50" height="30" as="geometry" />
        </mxCell>
        <mxCell id="WPJqmkYzr5y2CwLYosxu-13" style="edgeStyle=orthogonalEdgeStyle;rounded=0;orthogonalLoop=1;jettySize=auto;html=1;exitX=1;exitY=0.5;exitDx=0;exitDy=0;entryX=0;entryY=0.5;entryDx=0;entryDy=0;fontSize=14;" edge="1" parent="1" source="WPJqmkYzr5y2CwLYosxu-2" target="WPJqmkYzr5y2CwLYosxu-8">
          <mxGeometry relative="1" as="geometry" />
        </mxCell>
        <mxCell id="WPJqmkYzr5y2CwLYosxu-2" value="- K1&lt;br&gt;- K2&lt;br&gt;- K3" style="rounded=0;whiteSpace=wrap;html=1;fontSize=14;" vertex="1" parent="1">
          <mxGeometry x="30" y="70" width="50" height="60" as="geometry" />
        </mxCell>
        <mxCell id="WPJqmkYzr5y2CwLYosxu-14" style="edgeStyle=orthogonalEdgeStyle;rounded=0;orthogonalLoop=1;jettySize=auto;html=1;exitX=1;exitY=0.5;exitDx=0;exitDy=0;entryX=0;entryY=0.5;entryDx=0;entryDy=0;fontSize=14;" edge="1" parent="1" source="WPJqmkYzr5y2CwLYosxu-4" target="WPJqmkYzr5y2CwLYosxu-8">
          <mxGeometry relative="1" as="geometry" />
        </mxCell>
        <mxCell id="WPJqmkYzr5y2CwLYosxu-4" value="- Q1&lt;br&gt;- Q2&lt;br&gt;- Q3" style="rounded=0;whiteSpace=wrap;html=1;fontSize=14;" vertex="1" parent="1">
          <mxGeometry x="30" y="169" width="50" height="60" as="geometry" />
        </mxCell>
        <mxCell id="WPJqmkYzr5y2CwLYosxu-17" style="edgeStyle=orthogonalEdgeStyle;rounded=0;orthogonalLoop=1;jettySize=auto;html=1;exitX=1;exitY=0.5;exitDx=0;exitDy=0;fontSize=14;" edge="1" parent="1" source="WPJqmkYzr5y2CwLYosxu-8" target="WPJqmkYzr5y2CwLYosxu-9">
          <mxGeometry relative="1" as="geometry" />
        </mxCell>
        <mxCell id="WPJqmkYzr5y2CwLYosxu-8" value="aidocx" style="rounded=0;whiteSpace=wrap;html=1;fontSize=14;" vertex="1" parent="1">
          <mxGeometry x="130" y="109" width="60" height="40" as="geometry" />
        </mxCell>
        <mxCell id="WPJqmkYzr5y2CwLYosxu-9" value="Document" style="verticalLabelPosition=bottom;verticalAlign=top;html=1;shape=mxgraph.basic.layered_rect;dx=10;outlineConnect=0;whiteSpace=wrap;fontSize=14;" vertex="1" parent="1">
          <mxGeometry x="240" y="99" width="100" height="60" as="geometry" />
        </mxCell>
        <mxCell id="WPJqmkYzr5y2CwLYosxu-10" value="Keyword&lt;br&gt;Tree" style="text;html=1;strokeColor=none;fillColor=none;align=center;verticalAlign=middle;whiteSpace=wrap;rounded=0;fontSize=14;" vertex="1" parent="1">
          <mxGeometry x="25" y="40" width="60" height="30" as="geometry" />
        </mxCell>
        <mxCell id="WPJqmkYzr5y2CwLYosxu-12" value="Question&lt;br&gt;List" style="text;html=1;strokeColor=none;fillColor=none;align=center;verticalAlign=middle;whiteSpace=wrap;rounded=0;fontSize=14;" vertex="1" parent="1">
          <mxGeometry x="25" y="229" width="60" height="30" as="geometry" />
        </mxCell>
      </root>
    </mxGraphModel>
  </diagram>
</mxfile>
